<svg xmlns="http://www.w3.org/2000/svg" width="250" height="60" viewBox="0 0 250 60" fill="none">
    <g clip-path="url(#clip0_2_5)">
        <path d="M221.262 54.6605C217.413 54.6605 215.686 52.4774 215.686 50.2273C215.686 45.2621 221.522 43.678 225.556 43.678C227.942 43.7056 230.304 44.1784 232.52 45.073C230.915 49.2422 226.203 54.6605 221.262 54.6605ZM242.555 13.5243C245.887 14.1626 245.327 15.0611 243.644 18.9032L235.454 38.1729L227.228 18.8914C225.56 15.0493 225.647 14.1469 229.602 13.5124H215.946C216.877 13.5952 217.776 13.8986 218.573 14.3951C219.29 14.8444 219.886 15.4631 220.316 16.1921C220.966 17.3349 221.53 18.5249 222.011 19.7505C222.618 21.1494 223.222 22.5523 223.821 23.9591C224.614 25.8506 225.414 27.7421 226.223 29.6336C227.031 31.5251 227.831 33.4205 228.624 35.312C229.018 36.2617 229.417 37.2035 229.811 38.1532C230.603 39.9738 231.349 41.8062 232.129 43.6228L232.248 43.9026C232.413 44.2139 232.516 44.5567 232.547 44.9114C232.453 44.8838 232.362 44.8444 232.275 44.7971C232.169 44.742 232.051 44.6868 231.948 44.6237C231.739 44.5016 231.526 44.3834 231.301 44.277C231.073 44.1903 230.852 44.0917 230.639 43.9775C228.987 43.343 227.232 43.0357 225.461 43.0711C217.705 43.0711 212.796 49.5811 212.796 53.8803C212.788 54.8615 213.017 55.8348 213.47 56.7057C213.92 57.5805 214.578 58.3293 215.387 58.8928C217.512 60.3114 220.256 60.1025 222.461 58.9873C223.928 58.1953 225.249 57.1549 226.357 55.9097C230.154 51.8469 233.336 44.8405 235.43 39.7846C235.694 39.1463 235.966 38.5 236.223 37.8577L240.146 28.6366L243.502 20.7317C243.766 20.1051 244.026 19.4825 244.294 18.8559C245.962 15.0138 246.155 14.1114 250 13.477L242.555 13.5164V13.5243Z" fill="#1E3244"/>
        <path d="M15.694 0.788127C11.0331 0.788127 5.84779 3.16039 5.91088 8.52753C5.91088 14.8207 13.3951 17.8984 18.7145 20.1288C26.9204 23.5413 35.9779 27.147 35.9779 36.3366C35.9779 44.7971 27.5079 47.8787 18.5134 47.8787C13.3241 47.8787 6.64038 46.9566 3.47398 46.4364L0 34.3111C5.25237 41.6367 12.6222 47.0787 20.9345 47.0787C26.9085 47.0787 31.4353 44.7814 31.4353 38.2911C31.3722 30.8157 24.0852 28.014 16.7311 24.9836C10.6901 22.4931 1.49842 18.2254 1.49842 11.018C1.49842 2.68751 10.4929 0 17.78 0C21.6562 0 27.1688 0.725076 31.6995 1.44227L35.1814 13.5715C30.9858 7.80245 23.4385 0.788127 15.694 0.788127Z" fill="#1E3244"/>
        <path d="M50.9424 29.1134C48.8249 29.7203 46.9677 31.0049 45.6506 32.7703C44.3336 34.5357 43.6357 36.6834 43.6593 38.8822C43.6593 43.5401 47.7327 45.8296 50.9464 45.8296C57.642 45.8296 62.504 34.2283 62.3068 25.5077V24.9127C59.7476 27.7302 55.347 27.8642 50.9464 29.1095M62.3699 47.2048V36.7149C59.2035 41.9599 53.8368 47.8629 47.2082 47.8629C42.086 47.8629 38.2808 44.0602 38.2808 39.1423C38.2808 32.7821 44.7161 30.4847 50.9464 28.4711C56.7942 26.4968 62.567 24.7984 62.567 20.0105C62.567 16.5349 59.4006 14.9626 56.3289 14.9626C52.4566 14.9626 49.0418 17.126 44.1877 21.8469L39.2626 18.6865C43.0718 15.865 47.9929 13.7686 52.851 13.7686C60.0079 13.7686 67.5592 17.3742 67.5592 25.5668V39.1423C67.5592 43.0751 68.0166 46.5507 72.3541 47.2048H62.3778H62.3699Z" fill="#1E3244"/>
        <path d="M83.7028 18.7535C87.4252 15.4079 91.7825 13.7568 95.7809 13.7568C97.6776 13.741 99.5585 14.1469 101.278 14.9429L99.176 19.0057C96.1555 16.5152 93.5963 15.53 91.3645 15.53C86.7075 15.53 84.4047 20.1209 83.687 24.0576V39.1384C83.687 43.0711 84.1444 46.5468 88.482 47.2009H73.6594C77.993 46.5468 78.4504 43.0711 78.4504 39.1384V22.2212C78.4504 18.3555 76.7391 18.4855 73.6594 19.4037C77.5987 17.9614 79.7675 16.7832 83.7067 14.0287V18.7574" fill="#1E3244"/>
        <path d="M120.067 47.7959C112.583 47.7959 106.609 49.5653 106.609 41.8298V16.393H102.015L111.861 7.67241V14.4227H120.461L119.933 16.4009H111.857V43.7962C111.857 45.7704 112.973 47.2718 114.878 47.2718C116.254 47.2718 118.044 46.4798 120.063 44.5055V47.7959" fill="#1E3244"/>
        <path d="M145.804 46.795C161.494 43.0593 153.817 11.0614 138.19 14.801C122.5 18.5525 130.173 50.5504 145.804 46.8108V46.795ZM141.995 13.7528C165.237 13.7528 165.237 47.8432 141.995 47.8432C118.754 47.8432 118.754 13.7528 141.995 13.7528Z" fill="#1E3244"/>
        <path d="M210.465 33.2668C211.739 30.532 212.642 28.278 213.845 25.5117C217.532 16.9881 213.431 13.5282 208.584 13.5282C204.625 13.5282 199.992 15.8768 195.524 19.8096C195.773 15.4158 192.965 13.5794 189.42 13.5794C187.969 13.607 186.526 13.8474 185.146 14.3045C183.509 14.8286 181.936 15.5261 180.453 16.3891C179.897 16.7043 179.353 17.0393 178.813 17.394C178.304 17.7289 177.851 18.052 177.295 18.4619C177.476 17.9772 177.61 17.4767 177.689 16.9684C177.839 16.2551 177.741 15.5143 177.417 14.8641C177.161 14.4424 176.774 14.1154 176.317 13.9262C173.269 12.5943 169.89 14.872 168.222 17.3388C168.017 17.6462 167.831 17.9654 167.662 18.2964C168.166 17.6895 168.782 17.1812 169.479 16.8068C170.13 16.46 171.033 16.0738 171.782 16.133C171.877 16.133 171.968 16.1566 172.054 16.1921C172.141 16.2315 172.216 16.2866 172.283 16.3536C172.35 16.4206 172.397 16.5034 172.429 16.5901C172.461 16.6768 172.472 16.7713 172.468 16.8659C172.559 17.9929 172.043 19.12 171.644 20.1485C171.388 20.8223 171.088 21.4725 170.8 22.1267C170.513 22.7769 170.241 23.4783 169.953 24.1561C169.665 24.8299 169.341 25.5747 169.042 26.288C168.742 27.0012 168.435 27.7302 168.135 28.4514C167.835 29.1725 167.524 29.8976 167.216 30.6187L166.983 31.1625C165.864 33.7476 164.819 36.3011 163.699 38.9019C163.052 40.3915 162.512 41.8495 161.849 43.3273C161.506 44.0839 161.199 44.8838 160.852 45.6404C160.544 46.3064 160.264 47.0669 159.897 47.8984H161.707C162.244 47.8984 163.991 47.9181 164.515 47.9181L166.246 43.8317C167.472 40.8644 167.713 40.356 169.361 36.4509C170.978 32.6166 172.599 28.9085 174.2 25.0703C174.815 23.5965 175.915 22.107 176.885 20.846C177.89 19.5101 179.073 18.3121 180.394 17.2876C181.069 16.7713 181.79 16.3182 182.543 15.928C183.253 15.5103 184.026 15.2069 184.83 15.0335C190.591 13.4533 192.437 18.0639 189.487 24.9639C187.472 29.6769 185.505 34.3623 183.549 39.0201C182.409 41.7313 180.923 45.2188 179.787 47.8984H183.324C183.47 47.8984 184.117 47.922 184.409 47.8984C184.862 46.9369 184.988 46.4798 185.233 45.9517C185.544 45.2661 185.812 44.5764 186.108 43.8829C186.755 42.3933 187.248 41.2387 187.863 39.7413C189.05 36.8252 190.3 34.0707 191.479 31.2216C192.441 28.9006 193.423 26.5323 194.57 24.294C195.177 23.1315 195.891 22.0242 196.696 20.9878C198.73 18.3476 200.816 15.8492 204.077 14.9783C209.834 13.3982 212.295 18.2176 209.31 25.1018C208.072 27.9627 206.964 30.8197 205.718 33.6845C204.716 35.9859 203.892 37.9562 202.906 40.2812C202.449 41.3727 202.062 42.4918 201.751 43.6346C201.475 44.6316 201.356 45.5695 201.715 46.5901C202.559 48.8481 205.489 48.3043 207.082 47.4649C208.722 46.5822 210.055 45.2227 210.907 43.5676C210.497 44.1311 209.98 44.6119 209.389 44.9784C209.093 45.1675 208.778 45.3252 208.446 45.4513C208.111 45.6168 207.741 45.6956 207.37 45.6838C207.106 45.6483 206.463 45.4552 206.329 45.2266C206.112 44.8129 206.017 44.3439 206.061 43.875C206.159 43.4573 206.317 43.0593 206.534 42.6889C206.897 41.7865 207.326 40.7422 207.697 39.9226C208.052 39.1541 208.423 38.1847 208.762 37.4084C209.341 36.0647 209.858 34.6066 210.477 33.2786" fill="#1E3244"/>
    </g>
    <defs>
        <clipPath id="clip0_2_5">
            <rect width="250" height="60" fill="white"/>
        </clipPath>
    </defs>
</svg>